<svg xmlns="http://www.w3.org/2000/svg" viewBox="0 0 32 32" width="32" height="32">
  <defs>
    <linearGradient id="g" x1="0" y1="0" x2="1" y2="1">
      <stop offset="0%" stop-color="#0A84FF"/>
      <stop offset="100%" stop-color="#0060CC"/>
    </linearGradient>
  </defs>
  <!-- Background rounded square -->
  <rect width="32" height="32" rx="6" fill="#1C1C1E"/>
  <!-- Gear icon -->
  <g transform="translate(16,16)">
    <path d="
      M0,-12 L2,-9.5 L5,-11 L5.5,-8 L8.5,-8 L8,-5 L11,-3.5 L9.5,-1 L12,1
      L9.5,3 L11,5.5 L8,5.5 L8.5,8.5 L5.5,8 L5,11 L2,9.5 L0,12
      L-2,9.5 L-5,11 L-5.5,8 L-8.5,8.5 L-8,5.5 L-11,5.5 L-9.5,3 L-12,1
      L-9.5,-1 L-11,-3.5 L-8,-5 L-8.5,-8 L-5.5,-8 L-5,-11 L-2,-9.5 Z"
      fill="url(#g)" opacity="0.9"/>
    <circle cx="0" cy="0" r="4.5" fill="#1C1C1E"/>
    <circle cx="0" cy="0" r="2" fill="#0A84FF" opacity="0.6"/>
  </g>
</svg>
